<mxfile host="65bd71144e">
    <diagram id="BNv4OCOSLPR2iXhaLnXR" name="Page-1">
        <mxGraphModel dx="1405" dy="613" grid="1" gridSize="10" guides="1" tooltips="1" connect="1" arrows="1" fold="1" page="1" pageScale="1" pageWidth="827" pageHeight="1169" math="0" shadow="0">
            <root>
                <mxCell id="0"/>
                <mxCell id="1" parent="0"/>
                <mxCell id="2" value="&lt;div style=&quot;color: rgb(212, 212, 212); font-family: &amp;quot;jetbrains mono&amp;quot;, consolas, &amp;quot;courier new&amp;quot;, monospace; font-size: 16px; line-height: 22px;&quot;&gt;&lt;span style=&quot;color: #c586c0&quot;&gt;return&lt;/span&gt; &lt;span style=&quot;color: #4ec9b0&quot;&gt;Array&lt;/span&gt;.&lt;span style=&quot;color: #dcdcaa&quot;&gt;FindAll&lt;/span&gt;(&lt;span style=&quot;color: #9cdcfe&quot;&gt;strings&lt;/span&gt;, &lt;span style=&quot;color: #9cdcfe&quot;&gt;x&lt;/span&gt; =&amp;gt; &lt;span style=&quot;color: #9cdcfe&quot;&gt;x&lt;/span&gt;.Length &amp;lt;= &lt;span style=&quot;color: #b5cea8&quot;&gt;3&lt;/span&gt; &amp;amp;&amp;amp; &lt;span style=&quot;color: #9cdcfe&quot;&gt;x&lt;/span&gt; != &lt;span style=&quot;color: #ce9178&quot;&gt;&quot; &quot;&lt;/span&gt; &amp;amp;&amp;amp; !&lt;span style=&quot;color: #569cd6&quot;&gt;string&lt;/span&gt;.&lt;span style=&quot;color: #dcdcaa&quot;&gt;IsNullOrEmpty&lt;/span&gt;(&lt;span style=&quot;color: #9cdcfe&quot;&gt;x&lt;/span&gt;));&lt;/div&gt;" style="rounded=0;whiteSpace=wrap;html=1;labelBackgroundColor=none;backgroundOutline=0;fillColor=#576675;fontColor=#ffffff;strokeColor=#576675;strokeWidth=2;" parent="1" vertex="1">
                    <mxGeometry x="-438.25" y="250" width="876.5" height="50" as="geometry"/>
                </mxCell>
                <mxCell id="4" value="" style="edgeStyle=none;html=1;fontSize=18;fontColor=#F0F0F0;strokeWidth=2;entryX=0.5;entryY=0;entryDx=0;entryDy=0;labelBackgroundColor=none;backgroundOutline=0;fillColor=#576675;strokeColor=#576675;" parent="1" source="5" target="2" edge="1">
                    <mxGeometry relative="1" as="geometry">
                        <mxPoint x="-6" y="260" as="targetPoint"/>
                    </mxGeometry>
                </mxCell>
                <mxCell id="5" value="&lt;font style=&quot;font-size: 18px&quot;&gt;Полученный от пользователя массив&amp;nbsp;&lt;/font&gt;&lt;span style=&quot;font-family: &amp;quot;jetbrains mono&amp;quot; , &amp;quot;consolas&amp;quot; , &amp;quot;courier new&amp;quot; , monospace ; font-size: 16px ; color: rgb(86 , 156 , 214)&quot;&gt;string&lt;/span&gt;&lt;span style=&quot;color: rgb(212, 212, 212); font-family: &amp;quot;jetbrains mono&amp;quot;, consolas, &amp;quot;courier new&amp;quot;, monospace; font-size: 16px;&quot;&gt;[&lt;/span&gt;&lt;span style=&quot;color: rgb(212, 212, 212); font-family: &amp;quot;jetbrains mono&amp;quot;, consolas, &amp;quot;courier new&amp;quot;, monospace; font-size: 16px;&quot;&gt;]&lt;/span&gt;&lt;span style=&quot;color: rgb(212, 212, 212); font-family: &amp;quot;jetbrains mono&amp;quot;, consolas, &amp;quot;courier new&amp;quot;, monospace; font-size: 16px;&quot;&gt; &lt;/span&gt;&lt;span style=&quot;font-family: &amp;quot;jetbrains mono&amp;quot; , &amp;quot;consolas&amp;quot; , &amp;quot;courier new&amp;quot; , monospace ; font-size: 16px ; color: rgb(156 , 220 , 254)&quot;&gt;strings&lt;/span&gt;" style="shape=parallelogram;perimeter=parallelogramPerimeter;whiteSpace=wrap;html=1;fixedSize=1;fontSize=18;labelBackgroundColor=none;backgroundOutline=0;fillColor=#576675;fontColor=#ffffff;strokeColor=#576675;strokeWidth=2;" parent="1" vertex="1">
                    <mxGeometry x="-280" y="110" width="560" height="70" as="geometry"/>
                </mxCell>
                <mxCell id="6" value="" style="edgeStyle=none;html=1;fontSize=18;fontColor=#F0F0F0;strokeWidth=2;entryX=0.5;entryY=0;entryDx=0;entryDy=0;labelBackgroundColor=none;backgroundOutline=0;fillColor=#576675;strokeColor=#576675;exitX=0.5;exitY=1.072;exitDx=0;exitDy=0;exitPerimeter=0;" parent="1" source="2" target="35" edge="1">
                    <mxGeometry relative="1" as="geometry">
                        <mxPoint x="-1" y="310" as="sourcePoint"/>
                        <mxPoint x="-1" y="365" as="targetPoint"/>
                    </mxGeometry>
                </mxCell>
                <mxCell id="32" style="edgeStyle=none;html=1;entryX=0.5;entryY=0;entryDx=0;entryDy=0;strokeWidth=2;labelBackgroundColor=none;backgroundOutline=0;fillColor=#576675;strokeColor=#576675;" parent="1" source="33" target="5" edge="1">
                    <mxGeometry relative="1" as="geometry"/>
                </mxCell>
                <mxCell id="33" value="Начало" style="rounded=1;whiteSpace=wrap;html=1;arcSize=50;fontSize=18;labelBackgroundColor=none;backgroundOutline=0;fillColor=#576675;fontColor=#ffffff;strokeColor=#576675;strokeWidth=2;" parent="1" vertex="1">
                    <mxGeometry x="-60" y="10" width="120" height="50" as="geometry"/>
                </mxCell>
                <mxCell id="35" value="Конец" style="rounded=1;whiteSpace=wrap;html=1;arcSize=50;fontSize=18;labelBackgroundColor=none;backgroundOutline=0;fillColor=#576675;fontColor=#ffffff;strokeColor=#576675;strokeWidth=2;gradientColor=none;" parent="1" vertex="1">
                    <mxGeometry x="-60" y="380" width="120" height="50" as="geometry"/>
                </mxCell>
                <mxCell id="36" value="&lt;font style=&quot;font-size: 18px&quot;&gt;Возвращает сформированный массив&lt;/font&gt;" style="text;html=1;align=center;verticalAlign=middle;resizable=0;points=[];autosize=1;labelBackgroundColor=none;backgroundOutline=0;fillColor=#576675;fontColor=#ffffff;strokeColor=#576675;strokeWidth=2;" parent="1" vertex="1">
                    <mxGeometry x="-180" y="320" width="340" height="20" as="geometry"/>
                </mxCell>
            </root>
        </mxGraphModel>
    </diagram>
</mxfile>